<svg xmlns="http://www.w3.org/2000/svg" xmlns:xlink="http://www.w3.org/1999/xlink" version="1.1" xml:space="preserve" viewBox="0 0 1080 1080">
<desc>Created with Fabric.js 5.2.4</desc>
<defs>
</defs>
<rect x="0" y="0" width="100%" height="100%" fill="transparent"/>
<g transform="matrix(1 0 0 1 540 540)" id="982b198f-b467-42b9-9b04-208abd646616">
<rect style="stroke: none; stroke-width: 1; stroke-dasharray: none; stroke-linecap: butt; stroke-dashoffset: 0; stroke-linejoin: miter; stroke-miterlimit: 4; fill: rgb(255,255,255); fill-rule: nonzero; opacity: 1; visibility: hidden;" vector-effect="non-scaling-stroke" x="-540" y="-540" rx="0" ry="0" width="1080" height="1080"/>
</g>
<g transform="matrix(1 0 0 1 540 540)" id="6bf1694f-d1db-42ba-a1b8-c7895e861ada">
</g>
<g transform="matrix(7.5 0 0 7.56 540 540)">
<polygon style="stroke: none; stroke-width: 1; stroke-dasharray: none; stroke-linecap: butt; stroke-dashoffset: 0; stroke-linejoin: miter; stroke-miterlimit: 4; fill: rgb(66,66,66); fill-rule: nonzero; opacity: 1;" vector-effect="non-scaling-stroke" points="-25.7,-38.8 -25.7,-24 -25.7,28.4 0.2,40.8 25.7,28.4 25.7,-24 25.7,-38.8 25.7,-40.8 -25.7,-40.8 "/>
</g>
<g transform="matrix(7.5 0 0 7.56 327 302.99)">
<rect style="stroke: none; stroke-width: 1; stroke-dasharray: none; stroke-linecap: butt; stroke-dashoffset: 0; stroke-linejoin: miter; stroke-miterlimit: 4; fill: rgb(66,66,66); fill-rule: nonzero; opacity: 1;" vector-effect="non-scaling-stroke" x="-1.7" y="-7.45" rx="0" ry="0" width="3.4" height="14.9"/>
</g>
<g transform="matrix(7.5 0 0 7.56 753 302.99)">
<rect style="stroke: none; stroke-width: 1; stroke-dasharray: none; stroke-linecap: butt; stroke-dashoffset: 0; stroke-linejoin: miter; stroke-miterlimit: 4; fill: rgb(66,66,66); fill-rule: nonzero; opacity: 1;" vector-effect="non-scaling-stroke" x="-1.7" y="-7.45" rx="0" ry="0" width="3.4" height="14.9"/>
</g>
<g transform="matrix(6.53 0 0 7.29 540.31 529.09)">
<polygon style="stroke: none; stroke-width: 1; stroke-dasharray: none; stroke-linecap: butt; stroke-dashoffset: 0; stroke-linejoin: miter; stroke-miterlimit: 4; fill: rgb(1,255,153); fill-rule: nonzero; opacity: 1;" vector-effect="non-scaling-stroke" points="-25.7,-38.8 -25.7,-24 -25.7,28.4 0.2,40.8 25.7,28.4 25.7,-24 25.7,-38.8 25.7,-40.8 -25.7,-40.8 "/>
</g>
<g transform="matrix(6.38 0 0 7.23 539.99 526.65)">
<polygon style="stroke: none; stroke-width: 1; stroke-dasharray: none; stroke-linecap: butt; stroke-dashoffset: 0; stroke-linejoin: miter; stroke-miterlimit: 4; fill: rgb(66,66,66); fill-rule: nonzero; opacity: 1;" vector-effect="non-scaling-stroke" points="-25.7,-38.8 -25.7,-24 -25.7,28.4 0.2,40.8 25.7,28.4 25.7,-24 25.7,-38.8 25.7,-40.8 -25.7,-40.8 "/>
</g>
</svg>